<mxfile host="Electron" modified="2024-01-20T07:42:04.218Z" agent="Mozilla/5.0 (Windows NT 10.0; Win64; x64) AppleWebKit/537.36 (KHTML, like Gecko) draw.io/22.1.21 Chrome/120.0.6099.109 Electron/28.1.0 Safari/537.36" etag="1woPfKkmZs2NEIgEc4XX" version="22.1.21" type="device">
  <diagram name="Page-1" id="wdSgTUb1SyZ1GlpzT58f">
    <mxGraphModel dx="674" dy="463" grid="1" gridSize="10" guides="1" tooltips="1" connect="1" arrows="1" fold="1" page="1" pageScale="1" pageWidth="850" pageHeight="1100" math="0" shadow="0">
      <root>
        <mxCell id="0" />
        <mxCell id="1" parent="0" />
        <mxCell id="lN2HOLTWqLaLnE7HK2G7-11" style="edgeStyle=orthogonalEdgeStyle;rounded=0;orthogonalLoop=1;jettySize=auto;html=1;shape=flexArrow;strokeColor=#666666;fillColor=#FFC37B;gradientColor=#80CBF2;gradientDirection=east;" parent="1" target="lN2HOLTWqLaLnE7HK2G7-3" edge="1">
          <mxGeometry relative="1" as="geometry">
            <mxPoint x="379" y="295" as="sourcePoint" />
            <mxPoint x="459" y="295" as="targetPoint" />
          </mxGeometry>
        </mxCell>
        <mxCell id="lN2HOLTWqLaLnE7HK2G7-1" value="&lt;font face=&quot;consolas&quot;&gt;基类 Dog&lt;/font&gt;" style="swimlane;whiteSpace=wrap;html=1;startSize=30;fillColor=#FFC37B;strokeColor=#b46504;" parent="1" vertex="1">
          <mxGeometry x="220" y="260" width="160" height="70" as="geometry">
            <mxRectangle x="220" y="260" width="90" height="30" as="alternateBounds" />
          </mxGeometry>
        </mxCell>
        <mxCell id="lN2HOLTWqLaLnE7HK2G7-2" value="&lt;font face=&quot;consolas&quot;&gt;age&lt;/font&gt;" style="rounded=0;whiteSpace=wrap;html=1;fillColor=#fad7ac;strokeColor=#b46504;" parent="lN2HOLTWqLaLnE7HK2G7-1" vertex="1">
          <mxGeometry x="1" y="31" width="79" height="38" as="geometry" />
        </mxCell>
        <mxCell id="lN2HOLTWqLaLnE7HK2G7-5" value="&lt;font face=&quot;consolas&quot;&gt;weight&lt;/font&gt;" style="rounded=0;whiteSpace=wrap;html=1;fillColor=#fad7ac;strokeColor=#b46504;" parent="lN2HOLTWqLaLnE7HK2G7-1" vertex="1">
          <mxGeometry x="80" y="31" width="79" height="38" as="geometry" />
        </mxCell>
        <mxCell id="lN2HOLTWqLaLnE7HK2G7-3" value="&lt;font face=&quot;consolas&quot;&gt;派生类 Husky&lt;/font&gt;" style="swimlane;whiteSpace=wrap;html=1;startSize=30;fillColor=#80CBF2;strokeColor=#10739e;" parent="1" vertex="1">
          <mxGeometry x="460" y="240" width="160" height="110" as="geometry">
            <mxRectangle x="460" y="240" width="120" height="30" as="alternateBounds" />
          </mxGeometry>
        </mxCell>
        <mxCell id="lN2HOLTWqLaLnE7HK2G7-7" value="&lt;font face=&quot;consolas&quot;&gt;age&lt;/font&gt;" style="rounded=0;whiteSpace=wrap;html=1;fillColor=#fad7ac;strokeColor=#b46504;" parent="lN2HOLTWqLaLnE7HK2G7-3" vertex="1">
          <mxGeometry x="1" y="31" width="79" height="39" as="geometry" />
        </mxCell>
        <mxCell id="lN2HOLTWqLaLnE7HK2G7-8" value="&lt;font face=&quot;consolas&quot;&gt;weight&lt;/font&gt;" style="rounded=0;whiteSpace=wrap;html=1;fillColor=#fad7ac;strokeColor=#b46504;" parent="lN2HOLTWqLaLnE7HK2G7-3" vertex="1">
          <mxGeometry x="80" y="31" width="79" height="39" as="geometry" />
        </mxCell>
        <mxCell id="R4i4x6FAGBDWwvCj8aKv-1" value="&lt;font face=&quot;consolas&quot;&gt;destroy()&lt;/font&gt;" style="rounded=0;whiteSpace=wrap;html=1;fillColor=#b1ddf0;strokeColor=#10739e;" parent="lN2HOLTWqLaLnE7HK2G7-3" vertex="1">
          <mxGeometry x="80" y="70" width="79" height="39" as="geometry" />
        </mxCell>
        <mxCell id="lN2HOLTWqLaLnE7HK2G7-9" value="&lt;font face=&quot;consolas&quot;&gt;_destroy&lt;br&gt;_ability&lt;br&gt;&lt;/font&gt;" style="rounded=0;whiteSpace=wrap;html=1;fillColor=#b1ddf0;strokeColor=#10739e;" parent="lN2HOLTWqLaLnE7HK2G7-3" vertex="1">
          <mxGeometry x="1" y="70" width="79" height="39" as="geometry" />
        </mxCell>
      </root>
    </mxGraphModel>
  </diagram>
</mxfile>
